<svg width="64" height="27" viewBox="0 0 64 27" fill="none" xmlns="http://www.w3.org/2000/svg">
<g clip-path="url(#clip0_53_3307)">
<path d="M1.30908 21.0005H13.9931V17.4445H5.84508V0.980469H1.30908V21.0005Z" fill="black"/>
<path d="M22.3315 18.2275C20.0355 18.2275 18.7475 16.5475 18.7475 13.7475V13.5235C18.7475 10.7235 20.0915 9.09953 22.3315 9.09953C24.5995 9.09953 25.9155 10.7795 25.9155 13.5795V13.7755C25.9155 16.5475 24.5995 18.2275 22.3315 18.2275ZM22.3035 21.3075C26.6995 21.3075 30.0315 18.3675 30.0315 13.7475V13.5235C30.0315 8.95953 26.7275 6.01953 22.3315 6.01953C17.9355 6.01953 14.6035 9.01553 14.6035 13.6075V13.8315C14.6035 18.3955 17.9355 21.3075 22.3035 21.3075Z" fill="black"/>
<path d="M38.4096 26.4035C43.2256 26.4035 46.1096 24.1915 46.1376 19.8515V6.35553H42.1056V8.53953C41.2656 7.05553 39.8376 6.01953 37.4576 6.01953C33.8176 6.01953 31.0176 8.95953 31.0176 13.1595V13.3555C31.0176 17.6955 33.8456 20.3555 37.4016 20.3555C39.5576 20.3555 41.2936 19.0675 42.1056 17.6395V19.8515C42.1056 22.1475 40.8736 23.4355 38.4096 23.4355C36.3376 23.4355 35.4136 22.5955 35.1616 21.3075H31.1296C31.5216 24.3315 33.6776 26.4035 38.4096 26.4035ZM38.6056 17.3035C36.5896 17.3035 35.1616 15.7915 35.1616 13.3555V13.1315C35.1616 10.7235 36.4216 9.09953 38.6896 9.09953C40.9016 9.09953 42.2176 10.6115 42.2176 13.1035V13.2995C42.2176 15.7915 40.7336 17.3035 38.6056 17.3035Z" fill="black"/>
<path d="M55.7065 18.2275C53.4105 18.2275 52.1225 16.5475 52.1225 13.7475V13.5235C52.1225 10.7235 53.4665 9.09953 55.7065 9.09953C57.9745 9.09953 59.2905 10.7795 59.2905 13.5795V13.7755C59.2905 16.5475 57.9745 18.2275 55.7065 18.2275ZM55.6785 21.3075C60.0745 21.3075 63.4065 18.3675 63.4065 13.7475V13.5235C63.4065 8.95953 60.1025 6.01953 55.7065 6.01953C51.3105 6.01953 47.9785 9.01553 47.9785 13.6075V13.8315C47.9785 18.3955 51.3105 21.3075 55.6785 21.3075Z" fill="black"/>
</g>
<defs>
<clipPath id="clip0_53_3307">
<rect width="63" height="27" fill="white" transform="translate(0.744629)"/>
</clipPath>
</defs>
</svg>
