<svg width="106" height="57" viewBox="0 0 106 57" fill="none" xmlns="http://www.w3.org/2000/svg">
<path fill-rule="evenodd" clip-rule="evenodd" d="M38.5693 17.1387L27.0598 39.6387H16.249L21.0658 30.3137H20.8496C16.8759 35.4722 10.9469 38.868 2.49902 39.6387V30.4428C2.49902 30.4428 7.90334 30.1235 11.0804 26.7834H2.49902V17.1388H12.1435V25.0713L12.36 25.0704L16.3011 17.1388H23.595V25.021L23.8114 25.0207L27.9004 17.1387H38.5693ZM101.332 37.1552H104.438V19.3262H101.332V37.1552ZM84.2082 36.9731C84.8832 37.2537 85.5697 37.3941 86.2676 37.3941C87.4205 37.3941 88.4521 37.1135 89.3623 36.5521C90.2725 35.9909 90.978 35.2172 91.4786 34.2311C91.9792 33.2375 92.2295 32.111 92.2295 30.8519C92.2295 29.5927 91.9716 28.4664 91.4558 27.4727C90.94 26.4791 90.2232 25.7092 89.3053 25.163C88.3876 24.6093 87.3446 24.3363 86.1765 24.3438C85.4332 24.3438 84.7202 24.488 84.0375 24.7762C83.3548 25.0644 82.786 25.474 82.3308 26.005C82.2957 26.0454 82.2616 26.0862 82.2285 26.1275V19.3376H79.111V37.1552H82.2057L82.1995 35.4907C82.2795 35.5889 82.3651 35.6847 82.456 35.7785C82.949 36.2867 83.5331 36.6849 84.2082 36.9731ZM87.394 34.0946C86.8857 34.4056 86.3055 34.5611 85.6531 34.5611C85.0083 34.5611 84.4167 34.4017 83.8782 34.0832C83.3396 33.757 82.9111 33.3134 82.5925 32.752C82.2815 32.1907 82.126 31.5535 82.126 30.8405C82.1185 30.1275 82.2701 29.4904 82.5811 28.9291C82.8997 28.3602 83.3282 27.9202 83.8668 27.6093C84.4053 27.2907 85.0008 27.1352 85.6531 27.1428C86.3055 27.1352 86.8857 27.2869 87.394 27.5979C87.9097 27.9013 88.3041 28.3374 88.5772 28.9063C88.8578 29.4676 88.9982 30.1124 88.9982 30.8405C88.9982 31.5687 88.8578 32.2135 88.5772 32.7747C88.3041 33.3361 87.9097 33.776 87.394 34.0946ZM43.0691 20.4071H46.619L49.7945 32.0041L53.1726 20.4071H56.1308L59.7945 31.7713L62.8437 20.4071H66.0977L61.2963 37.1552H58.2357L54.5102 26.0532L51.0905 37.1552H47.9957L43.0691 20.4071ZM71.3403 37.4509C70.1038 37.4586 68.9888 37.1854 67.9952 36.6318C67.0091 36.0704 66.2317 35.2929 65.6627 34.2993C65.1014 33.3057 64.8208 32.1717 64.8208 30.8973C64.8208 29.6609 65.1091 28.5422 65.6856 27.5409C66.2619 26.5397 67.0432 25.7584 68.0293 25.1971C69.0154 24.6358 70.1152 24.3552 71.3288 24.3552C72.6942 24.3552 73.8888 24.6586 74.9128 25.2654C75.9444 25.8722 76.7143 26.7331 77.2225 27.8481C77.7383 28.9556 77.9242 30.2261 77.7801 31.6597H68.0342C68.0614 32.2308 68.2039 32.7504 68.4617 33.2184C68.7499 33.7342 69.1519 34.1362 69.6677 34.4244C70.1835 34.7127 70.7599 34.8568 71.3972 34.8568C71.8826 34.8492 72.3339 34.7658 72.7511 34.6066C73.1683 34.4397 73.5209 34.2159 73.8092 33.9352C74.105 33.6546 74.3137 33.3361 74.4351 32.9796H77.6891C77.4918 33.8518 77.0974 34.6293 76.5058 35.3119C75.914 35.9871 75.1708 36.5142 74.2757 36.8934C73.3807 37.2727 72.4022 37.4586 71.3403 37.4509ZM68.4731 28.5308C68.2913 28.8478 68.1653 29.1891 68.0952 29.5548H74.5555C74.5087 29.0928 74.3661 28.6718 74.1278 28.2919C73.8547 27.8443 73.4831 27.4992 73.0128 27.2565C72.5425 27.0062 72.0116 26.881 71.4199 26.881C70.7903 26.881 70.2177 27.0251 69.7018 27.3134C69.1861 27.6016 68.7764 28.0074 68.4731 28.5308ZM94.5168 24.6169C94.5168 23.6005 94.748 22.6978 95.2108 21.909C95.6734 21.1125 96.322 20.4943 97.1564 20.0544C97.9983 19.6069 98.9807 19.3755 100.103 19.3604V22.1251C99.5798 22.1327 99.1323 22.2427 98.7607 22.4551C98.3965 22.6599 98.1159 22.9595 97.9187 23.3539C97.7372 23.7171 97.6392 24.138 97.6248 24.6169H100.035V27.2451H97.6229V37.1552H94.5168V27.2451H92.5143V24.6169H94.5168ZM112.334 37.4281C111.067 37.4281 109.933 37.1513 108.932 36.5976C107.938 36.0363 107.157 35.2626 106.588 34.2765C106.027 33.2829 105.746 32.1565 105.746 30.8973C105.746 29.6306 106.027 28.5004 106.588 27.5067C107.157 26.5055 107.938 25.728 108.932 25.1743C109.933 24.6206 111.067 24.3437 112.334 24.3437C113.608 24.3437 114.746 24.6206 115.747 25.1743C116.756 25.728 117.541 26.5017 118.102 27.4954C118.664 28.489 118.948 29.623 118.956 30.8973C118.948 32.1565 118.664 33.2829 118.102 34.2765C117.549 35.2626 116.767 36.0363 115.758 36.5976C114.75 37.1513 113.608 37.4281 112.334 37.4281ZM112.334 34.5724C113.001 34.5724 113.593 34.4206 114.109 34.1173C114.625 33.8063 115.023 33.3739 115.303 32.8201C115.584 32.2589 115.724 31.6179 115.724 30.8973C115.724 30.1691 115.584 29.5244 115.303 28.9631C115.023 28.4018 114.625 27.9694 114.109 27.666C113.593 27.355 113.001 27.1995 112.334 27.1995C111.674 27.1995 111.086 27.355 110.57 27.666C110.062 27.9694 109.668 28.4018 109.387 28.9631C109.106 29.5244 108.97 30.1691 108.977 30.8973C108.977 31.6179 109.118 32.2589 109.398 32.8201C109.687 33.3739 110.081 33.8063 110.582 34.1173C111.09 34.4206 111.674 34.5724 112.334 34.5724ZM122.312 24.6169H118.853L122.597 37.1552H125.623L128.085 29.1469L130.743 37.1552H133.724L137.479 24.6169H134.35L132.22 32.4212L129.866 24.6169H126.841L124.498 32.5931L122.312 24.6169Z" fill="black"/>
<path d="M38.5693 17.1387L27.0598 39.6387H16.249L21.0658 30.3137H20.8496C16.8759 35.4722 10.9469 38.868 2.49902 39.6387V30.4428C2.49902 30.4428 7.90334 30.1235 11.0804 26.7834H2.49902V17.1388H12.1435V25.0713L12.36 25.0704L16.3011 17.1388H23.595V25.021L23.8114 25.0207L27.9004 17.1387H38.5693ZM101.332 37.1552H104.438V19.3262H101.332V37.1552ZM84.2082 36.9731C84.8832 37.2537 85.5697 37.3941 86.2676 37.3941C87.4205 37.3941 88.4521 37.1135 89.3623 36.5521C90.2725 35.9909 90.978 35.2172 91.4786 34.2311C91.9792 33.2375 92.2295 32.111 92.2295 30.8519C92.2295 29.5927 91.9716 28.4664 91.4558 27.4727C90.94 26.4791 90.2232 25.7092 89.3053 25.163C88.3876 24.6093 87.3446 24.3363 86.1765 24.3438C85.4332 24.3438 84.7202 24.488 84.0375 24.7762C83.3548 25.0644 82.786 25.474 82.3308 26.005C82.2957 26.0454 82.2616 26.0862 82.2285 26.1275V19.3376H79.111V37.1552H82.2057L82.1995 35.4907C82.2795 35.5889 82.3651 35.6847 82.456 35.7785C82.949 36.2867 83.5331 36.6849 84.2082 36.9731ZM87.394 34.0946C86.8857 34.4056 86.3055 34.5611 85.6531 34.5611C85.0083 34.5611 84.4167 34.4017 83.8782 34.0832C83.3396 33.757 82.9111 33.3134 82.5925 32.752C82.2815 32.1907 82.126 31.5535 82.126 30.8405C82.1185 30.1275 82.2701 29.4904 82.5811 28.9291C82.8997 28.3602 83.3282 27.9202 83.8668 27.6093C84.4053 27.2907 85.0008 27.1352 85.6531 27.1428C86.3055 27.1352 86.8857 27.2869 87.394 27.5979C87.9097 27.9013 88.3041 28.3374 88.5772 28.9063C88.8578 29.4676 88.9982 30.1124 88.9982 30.8405C88.9982 31.5687 88.8578 32.2135 88.5772 32.7747C88.3041 33.3361 87.9097 33.776 87.394 34.0946ZM43.0691 20.4071H46.619L49.7945 32.0041L53.1726 20.4071H56.1308L59.7945 31.7713L62.8437 20.4071H66.0977L61.2963 37.1552H58.2357L54.5102 26.0532L51.0905 37.1552H47.9957L43.0691 20.4071ZM71.3403 37.4509C70.1038 37.4586 68.9888 37.1854 67.9952 36.6318C67.0091 36.0704 66.2317 35.2929 65.6627 34.2993C65.1014 33.3057 64.8208 32.1717 64.8208 30.8973C64.8208 29.6609 65.1091 28.5422 65.6856 27.5409C66.2619 26.5397 67.0432 25.7584 68.0293 25.1971C69.0154 24.6358 70.1152 24.3552 71.3288 24.3552C72.6942 24.3552 73.8888 24.6586 74.9128 25.2654C75.9444 25.8722 76.7143 26.7331 77.2225 27.8481C77.7383 28.9556 77.9242 30.2261 77.7801 31.6597H68.0342C68.0614 32.2308 68.2039 32.7504 68.4617 33.2184C68.7499 33.7342 69.1519 34.1362 69.6677 34.4244C70.1835 34.7127 70.7599 34.8568 71.3972 34.8568C71.8826 34.8492 72.3339 34.7658 72.7511 34.6066C73.1683 34.4397 73.5209 34.2159 73.8092 33.9352C74.105 33.6546 74.3137 33.3361 74.4351 32.9796H77.6891C77.4918 33.8518 77.0974 34.6293 76.5058 35.3119C75.914 35.9871 75.1708 36.5142 74.2757 36.8934C73.3807 37.2727 72.4022 37.4586 71.3403 37.4509ZM68.4731 28.5308C68.2913 28.8478 68.1653 29.1891 68.0952 29.5548H74.5555C74.5087 29.0928 74.3661 28.6718 74.1278 28.2919C73.8547 27.8443 73.4831 27.4992 73.0128 27.2565C72.5425 27.0062 72.0116 26.881 71.4199 26.881C70.7903 26.881 70.2177 27.0251 69.7018 27.3134C69.1861 27.6016 68.7764 28.0074 68.4731 28.5308ZM94.5168 24.6169C94.5168 23.6005 94.748 22.6978 95.2108 21.909C95.6734 21.1125 96.322 20.4943 97.1564 20.0544C97.9983 19.6069 98.9807 19.3755 100.103 19.3604V22.1251C99.5798 22.1327 99.1323 22.2427 98.7607 22.4551C98.3965 22.6599 98.1159 22.9595 97.9187 23.3539C97.7372 23.7171 97.6392 24.138 97.6248 24.6169H100.035V27.2451H97.6229V37.1552H94.5168V27.2451H92.5143V24.6169H94.5168ZM112.334 37.4281C111.067 37.4281 109.933 37.1513 108.932 36.5976C107.938 36.0363 107.157 35.2626 106.588 34.2765C106.027 33.2829 105.746 32.1565 105.746 30.8973C105.746 29.6306 106.027 28.5004 106.588 27.5067C107.157 26.5055 107.938 25.728 108.932 25.1743C109.933 24.6206 111.067 24.3437 112.334 24.3437C113.608 24.3437 114.746 24.6206 115.747 25.1743C116.756 25.728 117.541 26.5017 118.102 27.4954C118.664 28.489 118.948 29.623 118.956 30.8973C118.948 32.1565 118.664 33.2829 118.102 34.2765C117.549 35.2626 116.767 36.0363 115.758 36.5976C114.75 37.1513 113.608 37.4281 112.334 37.4281ZM112.334 34.5724C113.001 34.5724 113.593 34.4206 114.109 34.1173C114.625 33.8063 115.023 33.3739 115.303 32.8201C115.584 32.2589 115.724 31.6179 115.724 30.8973C115.724 30.1691 115.584 29.5244 115.303 28.9631C115.023 28.4018 114.625 27.9694 114.109 27.666C113.593 27.355 113.001 27.1995 112.334 27.1995C111.674 27.1995 111.086 27.355 110.57 27.666C110.062 27.9694 109.668 28.4018 109.387 28.9631C109.106 29.5244 108.97 30.1691 108.977 30.8973C108.977 31.6179 109.118 32.2589 109.398 32.8201C109.687 33.3739 110.081 33.8063 110.582 34.1173C111.09 34.4206 111.674 34.5724 112.334 34.5724ZM122.312 24.6169H118.853L122.597 37.1552H125.623L128.085 29.1469L130.743 37.1552H133.724L137.479 24.6169H134.35L132.22 32.4212L129.866 24.6169H126.841L124.498 32.5931L122.312 24.6169Z" fill="black"/>
<path fill-rule="evenodd" clip-rule="evenodd" d="M38.5693 17.1387L27.0598 39.6387H16.249L21.0658 30.3137H20.8496C16.8759 35.4722 10.9469 38.868 2.49902 39.6387V30.4428C2.49902 30.4428 7.90334 30.1235 11.0804 26.7834H2.49902V17.1388H12.1435V25.0713L12.36 25.0704L16.3011 17.1388H23.595V25.021L23.8114 25.0207L27.9004 17.1387H38.5693ZM101.332 37.1552H104.438V19.3262H101.332V37.1552ZM84.2082 36.9731C84.8832 37.2537 85.5697 37.3941 86.2676 37.3941C87.4205 37.3941 88.4521 37.1135 89.3623 36.5521C90.2725 35.9909 90.978 35.2172 91.4786 34.2311C91.9792 33.2375 92.2295 32.111 92.2295 30.8519C92.2295 29.5927 91.9716 28.4664 91.4558 27.4727C90.94 26.4791 90.2232 25.7092 89.3053 25.163C88.3876 24.6093 87.3446 24.3363 86.1765 24.3438C85.4332 24.3438 84.7202 24.488 84.0375 24.7762C83.3548 25.0644 82.786 25.474 82.3308 26.005C82.2957 26.0454 82.2616 26.0862 82.2285 26.1275V19.3376H79.111V37.1552H82.2057L82.1995 35.4907C82.2795 35.5889 82.3651 35.6847 82.456 35.7785C82.949 36.2867 83.5331 36.6849 84.2082 36.9731ZM87.394 34.0946C86.8857 34.4056 86.3055 34.5611 85.6531 34.5611C85.0083 34.5611 84.4167 34.4017 83.8782 34.0832C83.3396 33.757 82.9111 33.3134 82.5925 32.752C82.2815 32.1907 82.126 31.5535 82.126 30.8405C82.1185 30.1275 82.2701 29.4904 82.5811 28.9291C82.8997 28.3602 83.3282 27.9202 83.8668 27.6093C84.4053 27.2907 85.0008 27.1352 85.6531 27.1428C86.3055 27.1352 86.8857 27.2869 87.394 27.5979C87.9097 27.9013 88.3041 28.3374 88.5772 28.9063C88.8578 29.4676 88.9982 30.1124 88.9982 30.8405C88.9982 31.5687 88.8578 32.2135 88.5772 32.7747C88.3041 33.3361 87.9097 33.776 87.394 34.0946ZM43.0691 20.4071H46.619L49.7945 32.0041L53.1726 20.4071H56.1308L59.7945 31.7713L62.8437 20.4071H66.0977L61.2963 37.1552H58.2357L54.5102 26.0532L51.0905 37.1552H47.9957L43.0691 20.4071ZM71.3403 37.4509C70.1038 37.4586 68.9888 37.1854 67.9952 36.6318C67.0091 36.0704 66.2317 35.2929 65.6627 34.2993C65.1014 33.3057 64.8208 32.1717 64.8208 30.8973C64.8208 29.6609 65.1091 28.5422 65.6856 27.5409C66.2619 26.5397 67.0432 25.7584 68.0293 25.1971C69.0154 24.6358 70.1152 24.3552 71.3288 24.3552C72.6942 24.3552 73.8888 24.6586 74.9128 25.2654C75.9444 25.8722 76.7143 26.7331 77.2225 27.8481C77.7383 28.9556 77.9242 30.2261 77.7801 31.6597H68.0342C68.0614 32.2308 68.2039 32.7504 68.4617 33.2184C68.7499 33.7342 69.1519 34.1362 69.6677 34.4244C70.1835 34.7127 70.7599 34.8568 71.3972 34.8568C71.8826 34.8492 72.3339 34.7658 72.7511 34.6066C73.1683 34.4397 73.5209 34.2159 73.8092 33.9352C74.105 33.6546 74.3137 33.3361 74.4351 32.9796H77.6891C77.4918 33.8518 77.0974 34.6293 76.5058 35.3119C75.914 35.9871 75.1708 36.5142 74.2757 36.8934C73.3807 37.2727 72.4022 37.4586 71.3403 37.4509ZM68.4731 28.5308C68.2913 28.8478 68.1653 29.1891 68.0952 29.5548H74.5555C74.5087 29.0928 74.3661 28.6718 74.1278 28.2919C73.8547 27.8443 73.4831 27.4992 73.0128 27.2565C72.5425 27.0062 72.0116 26.881 71.4199 26.881C70.7903 26.881 70.2177 27.0251 69.7018 27.3134C69.1861 27.6016 68.7764 28.0074 68.4731 28.5308ZM94.5168 24.6169C94.5168 23.6005 94.748 22.6978 95.2108 21.909C95.6734 21.1125 96.322 20.4943 97.1564 20.0544C97.9983 19.6069 98.9807 19.3755 100.103 19.3604V22.1251C99.5798 22.1327 99.1323 22.2427 98.7607 22.4551C98.3965 22.6599 98.1159 22.9595 97.9187 23.3539C97.7372 23.7171 97.6392 24.138 97.6248 24.6169H100.035V27.2451H97.6229V37.1552H94.5168V27.2451H92.5143V24.6169H94.5168ZM112.334 37.4281C111.067 37.4281 109.933 37.1513 108.932 36.5976C107.938 36.0363 107.157 35.2626 106.588 34.2765C106.027 33.2829 105.746 32.1565 105.746 30.8973C105.746 29.6306 106.027 28.5004 106.588 27.5067C107.157 26.5055 107.938 25.728 108.932 25.1743C109.933 24.6206 111.067 24.3437 112.334 24.3437C113.608 24.3437 114.746 24.6206 115.747 25.1743C116.756 25.728 117.541 26.5017 118.102 27.4954C118.664 28.489 118.948 29.623 118.956 30.8973C118.948 32.1565 118.664 33.2829 118.102 34.2765C117.549 35.2626 116.767 36.0363 115.758 36.5976C114.75 37.1513 113.608 37.4281 112.334 37.4281ZM112.334 34.5724C113.001 34.5724 113.593 34.4206 114.109 34.1173C114.625 33.8063 115.023 33.3739 115.303 32.8201C115.584 32.2589 115.724 31.6179 115.724 30.8973C115.724 30.1691 115.584 29.5244 115.303 28.9631C115.023 28.4018 114.625 27.9694 114.109 27.666C113.593 27.355 113.001 27.1995 112.334 27.1995C111.674 27.1995 111.086 27.355 110.57 27.666C110.062 27.9694 109.668 28.4018 109.387 28.9631C109.106 29.5244 108.97 30.1691 108.977 30.8973C108.977 31.6179 109.118 32.2589 109.398 32.8201C109.687 33.3739 110.081 33.8063 110.582 34.1173C111.09 34.4206 111.674 34.5724 112.334 34.5724ZM122.312 24.6169H118.853L122.597 37.1552H125.623L128.085 29.1469L130.743 37.1552H133.724L137.479 24.6169H134.35L132.22 32.4212L129.866 24.6169H126.841L124.498 32.5931L122.312 24.6169Z" fill="black"/>
<path d="M38.5693 17.1387L27.0598 39.6387H16.249L21.0658 30.3137H20.8496C16.8759 35.4722 10.9469 38.868 2.49902 39.6387V30.4428C2.49902 30.4428 7.90334 30.1235 11.0804 26.7834H2.49902V17.1388H12.1435V25.0713L12.36 25.0704L16.3011 17.1388H23.595V25.021L23.8114 25.0207L27.9004 17.1387H38.5693ZM101.332 37.1552H104.438V19.3262H101.332V37.1552ZM84.2082 36.9731C84.8832 37.2537 85.5697 37.3941 86.2676 37.3941C87.4205 37.3941 88.4521 37.1135 89.3623 36.5521C90.2725 35.9909 90.978 35.2172 91.4786 34.2311C91.9792 33.2375 92.2295 32.111 92.2295 30.8519C92.2295 29.5927 91.9716 28.4664 91.4558 27.4727C90.94 26.4791 90.2232 25.7092 89.3053 25.163C88.3876 24.6093 87.3446 24.3363 86.1765 24.3438C85.4332 24.3438 84.7202 24.488 84.0375 24.7762C83.3548 25.0644 82.786 25.474 82.3308 26.005C82.2957 26.0454 82.2616 26.0862 82.2285 26.1275V19.3376H79.111V37.1552H82.2057L82.1995 35.4907C82.2795 35.5889 82.3651 35.6847 82.456 35.7785C82.949 36.2867 83.5331 36.6849 84.2082 36.9731ZM87.394 34.0946C86.8857 34.4056 86.3055 34.5611 85.6531 34.5611C85.0083 34.5611 84.4167 34.4017 83.8782 34.0832C83.3396 33.757 82.9111 33.3134 82.5925 32.752C82.2815 32.1907 82.126 31.5535 82.126 30.8405C82.1185 30.1275 82.2701 29.4904 82.5811 28.9291C82.8997 28.3602 83.3282 27.9202 83.8668 27.6093C84.4053 27.2907 85.0008 27.1352 85.6531 27.1428C86.3055 27.1352 86.8857 27.2869 87.394 27.5979C87.9097 27.9013 88.3041 28.3374 88.5772 28.9063C88.8578 29.4676 88.9982 30.1124 88.9982 30.8405C88.9982 31.5687 88.8578 32.2135 88.5772 32.7747C88.3041 33.3361 87.9097 33.776 87.394 34.0946ZM43.0691 20.4071H46.619L49.7945 32.0041L53.1726 20.4071H56.1308L59.7945 31.7713L62.8437 20.4071H66.0977L61.2963 37.1552H58.2357L54.5102 26.0532L51.0905 37.1552H47.9957L43.0691 20.4071ZM71.3403 37.4509C70.1038 37.4586 68.9888 37.1854 67.9952 36.6318C67.0091 36.0704 66.2317 35.2929 65.6627 34.2993C65.1014 33.3057 64.8208 32.1717 64.8208 30.8973C64.8208 29.6609 65.1091 28.5422 65.6856 27.5409C66.2619 26.5397 67.0432 25.7584 68.0293 25.1971C69.0154 24.6358 70.1152 24.3552 71.3288 24.3552C72.6942 24.3552 73.8888 24.6586 74.9128 25.2654C75.9444 25.8722 76.7143 26.7331 77.2225 27.8481C77.7383 28.9556 77.9242 30.2261 77.7801 31.6597H68.0342C68.0614 32.2308 68.2039 32.7504 68.4617 33.2184C68.7499 33.7342 69.1519 34.1362 69.6677 34.4244C70.1835 34.7127 70.7599 34.8568 71.3972 34.8568C71.8826 34.8492 72.3339 34.7658 72.7511 34.6066C73.1683 34.4397 73.5209 34.2159 73.8092 33.9352C74.105 33.6546 74.3137 33.3361 74.4351 32.9796H77.6891C77.4918 33.8518 77.0974 34.6293 76.5058 35.3119C75.914 35.9871 75.1708 36.5142 74.2757 36.8934C73.3807 37.2727 72.4022 37.4586 71.3403 37.4509ZM68.4731 28.5308C68.2913 28.8478 68.1653 29.1891 68.0952 29.5548H74.5555C74.5087 29.0928 74.3661 28.6718 74.1278 28.2919C73.8547 27.8443 73.4831 27.4992 73.0128 27.2565C72.5425 27.0062 72.0116 26.881 71.4199 26.881C70.7903 26.881 70.2177 27.0251 69.7018 27.3134C69.1861 27.6016 68.7764 28.0074 68.4731 28.5308ZM94.5168 24.6169C94.5168 23.6005 94.748 22.6978 95.2108 21.909C95.6734 21.1125 96.322 20.4943 97.1564 20.0544C97.9983 19.6069 98.9807 19.3755 100.103 19.3604V22.1251C99.5798 22.1327 99.1323 22.2427 98.7607 22.4551C98.3965 22.6599 98.1159 22.9595 97.9187 23.3539C97.7372 23.7171 97.6392 24.138 97.6248 24.6169H100.035V27.2451H97.6229V37.1552H94.5168V27.2451H92.5143V24.6169H94.5168ZM112.334 37.4281C111.067 37.4281 109.933 37.1513 108.932 36.5976C107.938 36.0363 107.157 35.2626 106.588 34.2765C106.027 33.2829 105.746 32.1565 105.746 30.8973C105.746 29.6306 106.027 28.5004 106.588 27.5067C107.157 26.5055 107.938 25.728 108.932 25.1743C109.933 24.6206 111.067 24.3437 112.334 24.3437C113.608 24.3437 114.746 24.6206 115.747 25.1743C116.756 25.728 117.541 26.5017 118.102 27.4954C118.664 28.489 118.948 29.623 118.956 30.8973C118.948 32.1565 118.664 33.2829 118.102 34.2765C117.549 35.2626 116.767 36.0363 115.758 36.5976C114.75 37.1513 113.608 37.4281 112.334 37.4281ZM112.334 34.5724C113.001 34.5724 113.593 34.4206 114.109 34.1173C114.625 33.8063 115.023 33.3739 115.303 32.8201C115.584 32.2589 115.724 31.6179 115.724 30.8973C115.724 30.1691 115.584 29.5244 115.303 28.9631C115.023 28.4018 114.625 27.9694 114.109 27.666C113.593 27.355 113.001 27.1995 112.334 27.1995C111.674 27.1995 111.086 27.355 110.57 27.666C110.062 27.9694 109.668 28.4018 109.387 28.9631C109.106 29.5244 108.97 30.1691 108.977 30.8973C108.977 31.6179 109.118 32.2589 109.398 32.8201C109.687 33.3739 110.081 33.8063 110.582 34.1173C111.09 34.4206 111.674 34.5724 112.334 34.5724ZM122.312 24.6169H118.853L122.597 37.1552H125.623L128.085 29.1469L130.743 37.1552H133.724L137.479 24.6169H134.35L132.22 32.4212L129.866 24.6169H126.841L124.498 32.5931L122.312 24.6169Z" fill="black"/>
<path fill-rule="evenodd" clip-rule="evenodd" d="M38.5693 17.1387L27.0598 39.6387H16.249L21.0658 30.3137H20.8496C16.8759 35.4722 10.9469 38.868 2.49902 39.6387V30.4428C2.49902 30.4428 7.90334 30.1235 11.0804 26.7834H2.49902V17.1388H12.1435V25.0713L12.36 25.0704L16.3011 17.1388H23.595V25.021L23.8114 25.0207L27.9004 17.1387H38.5693ZM101.332 37.1552H104.438V19.3262H101.332V37.1552ZM84.2082 36.9731C84.8832 37.2537 85.5697 37.3941 86.2676 37.3941C87.4205 37.3941 88.4521 37.1135 89.3623 36.5521C90.2725 35.9909 90.978 35.2172 91.4786 34.2311C91.9792 33.2375 92.2295 32.111 92.2295 30.8519C92.2295 29.5927 91.9716 28.4664 91.4558 27.4727C90.94 26.4791 90.2232 25.7092 89.3053 25.163C88.3876 24.6093 87.3446 24.3363 86.1765 24.3438C85.4332 24.3438 84.7202 24.488 84.0375 24.7762C83.3548 25.0644 82.786 25.474 82.3308 26.005C82.2957 26.0454 82.2616 26.0862 82.2285 26.1275V19.3376H79.111V37.1552H82.2057L82.1995 35.4907C82.2795 35.5889 82.3651 35.6847 82.456 35.7785C82.949 36.2867 83.5331 36.6849 84.2082 36.9731ZM87.394 34.0946C86.8857 34.4056 86.3055 34.5611 85.6531 34.5611C85.0083 34.5611 84.4167 34.4017 83.8782 34.0832C83.3396 33.757 82.9111 33.3134 82.5925 32.752C82.2815 32.1907 82.126 31.5535 82.126 30.8405C82.1185 30.1275 82.2701 29.4904 82.5811 28.9291C82.8997 28.3602 83.3282 27.9202 83.8668 27.6093C84.4053 27.2907 85.0008 27.1352 85.6531 27.1428C86.3055 27.1352 86.8857 27.2869 87.394 27.5979C87.9097 27.9013 88.3041 28.3374 88.5772 28.9063C88.8578 29.4676 88.9982 30.1124 88.9982 30.8405C88.9982 31.5687 88.8578 32.2135 88.5772 32.7747C88.3041 33.3361 87.9097 33.776 87.394 34.0946ZM43.0691 20.4071H46.619L49.7945 32.0041L53.1726 20.4071H56.1308L59.7945 31.7713L62.8437 20.4071H66.0977L61.2963 37.1552H58.2357L54.5102 26.0532L51.0905 37.1552H47.9957L43.0691 20.4071ZM71.3403 37.4509C70.1038 37.4586 68.9888 37.1854 67.9952 36.6318C67.0091 36.0704 66.2317 35.2929 65.6627 34.2993C65.1014 33.3057 64.8208 32.1717 64.8208 30.8973C64.8208 29.6609 65.1091 28.5422 65.6856 27.5409C66.2619 26.5397 67.0432 25.7584 68.0293 25.1971C69.0154 24.6358 70.1152 24.3552 71.3288 24.3552C72.6942 24.3552 73.8888 24.6586 74.9128 25.2654C75.9444 25.8722 76.7143 26.7331 77.2225 27.8481C77.7383 28.9556 77.9242 30.2261 77.7801 31.6597H68.0342C68.0614 32.2308 68.2039 32.7504 68.4617 33.2184C68.7499 33.7342 69.1519 34.1362 69.6677 34.4244C70.1835 34.7127 70.7599 34.8568 71.3972 34.8568C71.8826 34.8492 72.3339 34.7658 72.7511 34.6066C73.1683 34.4397 73.5209 34.2159 73.8092 33.9352C74.105 33.6546 74.3137 33.3361 74.4351 32.9796H77.6891C77.4918 33.8518 77.0974 34.6293 76.5058 35.3119C75.914 35.9871 75.1708 36.5142 74.2757 36.8934C73.3807 37.2727 72.4022 37.4586 71.3403 37.4509ZM68.4731 28.5308C68.2913 28.8478 68.1653 29.1891 68.0952 29.5548H74.5555C74.5087 29.0928 74.3661 28.6718 74.1278 28.2919C73.8547 27.8443 73.4831 27.4992 73.0128 27.2565C72.5425 27.0062 72.0116 26.881 71.4199 26.881C70.7903 26.881 70.2177 27.0251 69.7018 27.3134C69.1861 27.6016 68.7764 28.0074 68.4731 28.5308ZM94.5168 24.6169C94.5168 23.6005 94.748 22.6978 95.2108 21.909C95.6734 21.1125 96.322 20.4943 97.1564 20.0544C97.9983 19.6069 98.9807 19.3755 100.103 19.3604V22.1251C99.5798 22.1327 99.1323 22.2427 98.7607 22.4551C98.3965 22.6599 98.1159 22.9595 97.9187 23.3539C97.7372 23.7171 97.6392 24.138 97.6248 24.6169H100.035V27.2451H97.6229V37.1552H94.5168V27.2451H92.5143V24.6169H94.5168ZM112.334 37.4281C111.067 37.4281 109.933 37.1513 108.932 36.5976C107.938 36.0363 107.157 35.2626 106.588 34.2765C106.027 33.2829 105.746 32.1565 105.746 30.8973C105.746 29.6306 106.027 28.5004 106.588 27.5067C107.157 26.5055 107.938 25.728 108.932 25.1743C109.933 24.6206 111.067 24.3437 112.334 24.3437C113.608 24.3437 114.746 24.6206 115.747 25.1743C116.756 25.728 117.541 26.5017 118.102 27.4954C118.664 28.489 118.948 29.623 118.956 30.8973C118.948 32.1565 118.664 33.2829 118.102 34.2765C117.549 35.2626 116.767 36.0363 115.758 36.5976C114.75 37.1513 113.608 37.4281 112.334 37.4281ZM112.334 34.5724C113.001 34.5724 113.593 34.4206 114.109 34.1173C114.625 33.8063 115.023 33.3739 115.303 32.8201C115.584 32.2589 115.724 31.6179 115.724 30.8973C115.724 30.1691 115.584 29.5244 115.303 28.9631C115.023 28.4018 114.625 27.9694 114.109 27.666C113.593 27.355 113.001 27.1995 112.334 27.1995C111.674 27.1995 111.086 27.355 110.57 27.666C110.062 27.9694 109.668 28.4018 109.387 28.9631C109.106 29.5244 108.97 30.1691 108.977 30.8973C108.977 31.6179 109.118 32.2589 109.398 32.8201C109.687 33.3739 110.081 33.8063 110.582 34.1173C111.09 34.4206 111.674 34.5724 112.334 34.5724ZM122.312 24.6169H118.853L122.597 37.1552H125.623L128.085 29.1469L130.743 37.1552H133.724L137.479 24.6169H134.35L132.22 32.4212L129.866 24.6169H126.841L124.498 32.5931L122.312 24.6169Z" fill="black"/>
<path d="M38.5693 17.1387L27.0598 39.6387H16.249L21.0658 30.3137H20.8496C16.8759 35.4722 10.9469 38.868 2.49902 39.6387V30.4428C2.49902 30.4428 7.90334 30.1235 11.0804 26.7834H2.49902V17.1388H12.1435V25.0713L12.36 25.0704L16.3011 17.1388H23.595V25.021L23.8114 25.0207L27.9004 17.1387H38.5693ZM101.332 37.1552H104.438V19.3262H101.332V37.1552ZM84.2082 36.9731C84.8832 37.2537 85.5697 37.3941 86.2676 37.3941C87.4205 37.3941 88.4521 37.1135 89.3623 36.5521C90.2725 35.9909 90.978 35.2172 91.4786 34.2311C91.9792 33.2375 92.2295 32.111 92.2295 30.8519C92.2295 29.5927 91.9716 28.4664 91.4558 27.4727C90.94 26.4791 90.2232 25.7092 89.3053 25.163C88.3876 24.6093 87.3446 24.3363 86.1765 24.3438C85.4332 24.3438 84.7202 24.488 84.0375 24.7762C83.3548 25.0644 82.786 25.474 82.3308 26.005C82.2957 26.0454 82.2616 26.0862 82.2285 26.1275V19.3376H79.111V37.1552H82.2057L82.1995 35.4907C82.2795 35.5889 82.3651 35.6847 82.456 35.7785C82.949 36.2867 83.5331 36.6849 84.2082 36.9731ZM87.394 34.0946C86.8857 34.4056 86.3055 34.5611 85.6531 34.5611C85.0083 34.5611 84.4167 34.4017 83.8782 34.0832C83.3396 33.757 82.9111 33.3134 82.5925 32.752C82.2815 32.1907 82.126 31.5535 82.126 30.8405C82.1185 30.1275 82.2701 29.4904 82.5811 28.9291C82.8997 28.3602 83.3282 27.9202 83.8668 27.6093C84.4053 27.2907 85.0008 27.1352 85.6531 27.1428C86.3055 27.1352 86.8857 27.2869 87.394 27.5979C87.9097 27.9013 88.3041 28.3374 88.5772 28.9063C88.8578 29.4676 88.9982 30.1124 88.9982 30.8405C88.9982 31.5687 88.8578 32.2135 88.5772 32.7747C88.3041 33.3361 87.9097 33.776 87.394 34.0946ZM43.0691 20.4071H46.619L49.7945 32.0041L53.1726 20.4071H56.1308L59.7945 31.7713L62.8437 20.4071H66.0977L61.2963 37.1552H58.2357L54.5102 26.0532L51.0905 37.1552H47.9957L43.0691 20.4071ZM71.3403 37.4509C70.1038 37.4586 68.9888 37.1854 67.9952 36.6318C67.0091 36.0704 66.2317 35.2929 65.6627 34.2993C65.1014 33.3057 64.8208 32.1717 64.8208 30.8973C64.8208 29.6609 65.1091 28.5422 65.6856 27.5409C66.2619 26.5397 67.0432 25.7584 68.0293 25.1971C69.0154 24.6358 70.1152 24.3552 71.3288 24.3552C72.6942 24.3552 73.8888 24.6586 74.9128 25.2654C75.9444 25.8722 76.7143 26.7331 77.2225 27.8481C77.7383 28.9556 77.9242 30.2261 77.7801 31.6597H68.0342C68.0614 32.2308 68.2039 32.7504 68.4617 33.2184C68.7499 33.7342 69.1519 34.1362 69.6677 34.4244C70.1835 34.7127 70.7599 34.8568 71.3972 34.8568C71.8826 34.8492 72.3339 34.7658 72.7511 34.6066C73.1683 34.4397 73.5209 34.2159 73.8092 33.9352C74.105 33.6546 74.3137 33.3361 74.4351 32.9796H77.6891C77.4918 33.8518 77.0974 34.6293 76.5058 35.3119C75.914 35.9871 75.1708 36.5142 74.2757 36.8934C73.3807 37.2727 72.4022 37.4586 71.3403 37.4509ZM68.4731 28.5308C68.2913 28.8478 68.1653 29.1891 68.0952 29.5548H74.5555C74.5087 29.0928 74.3661 28.6718 74.1278 28.2919C73.8547 27.8443 73.4831 27.4992 73.0128 27.2565C72.5425 27.0062 72.0116 26.881 71.4199 26.881C70.7903 26.881 70.2177 27.0251 69.7018 27.3134C69.1861 27.6016 68.7764 28.0074 68.4731 28.5308ZM94.5168 24.6169C94.5168 23.6005 94.748 22.6978 95.2108 21.909C95.6734 21.1125 96.322 20.4943 97.1564 20.0544C97.9983 19.6069 98.9807 19.3755 100.103 19.3604V22.1251C99.5798 22.1327 99.1323 22.2427 98.7607 22.4551C98.3965 22.6599 98.1159 22.9595 97.9187 23.3539C97.7372 23.7171 97.6392 24.138 97.6248 24.6169H100.035V27.2451H97.6229V37.1552H94.5168V27.2451H92.5143V24.6169H94.5168ZM112.334 37.4281C111.067 37.4281 109.933 37.1513 108.932 36.5976C107.938 36.0363 107.157 35.2626 106.588 34.2765C106.027 33.2829 105.746 32.1565 105.746 30.8973C105.746 29.6306 106.027 28.5004 106.588 27.5067C107.157 26.5055 107.938 25.728 108.932 25.1743C109.933 24.6206 111.067 24.3437 112.334 24.3437C113.608 24.3437 114.746 24.6206 115.747 25.1743C116.756 25.728 117.541 26.5017 118.102 27.4954C118.664 28.489 118.948 29.623 118.956 30.8973C118.948 32.1565 118.664 33.2829 118.102 34.2765C117.549 35.2626 116.767 36.0363 115.758 36.5976C114.75 37.1513 113.608 37.4281 112.334 37.4281ZM112.334 34.5724C113.001 34.5724 113.593 34.4206 114.109 34.1173C114.625 33.8063 115.023 33.3739 115.303 32.8201C115.584 32.2589 115.724 31.6179 115.724 30.8973C115.724 30.1691 115.584 29.5244 115.303 28.9631C115.023 28.4018 114.625 27.9694 114.109 27.666C113.593 27.355 113.001 27.1995 112.334 27.1995C111.674 27.1995 111.086 27.355 110.57 27.666C110.062 27.9694 109.668 28.4018 109.387 28.9631C109.106 29.5244 108.97 30.1691 108.977 30.8973C108.977 31.6179 109.118 32.2589 109.398 32.8201C109.687 33.3739 110.081 33.8063 110.582 34.1173C111.09 34.4206 111.674 34.5724 112.334 34.5724ZM122.312 24.6169H118.853L122.597 37.1552H125.623L128.085 29.1469L130.743 37.1552H133.724L137.479 24.6169H134.35L132.22 32.4212L129.866 24.6169H126.841L124.498 32.5931L122.312 24.6169Z" fill="black"/>
<path fill-rule="evenodd" clip-rule="evenodd" d="M38.5693 17.1387L27.0598 39.6387H16.249L21.0658 30.3137H20.8496C16.8759 35.4722 10.9469 38.868 2.49902 39.6387V30.4428C2.49902 30.4428 7.90334 30.1235 11.0804 26.7834H2.49902V17.1388H12.1435V25.0713L12.36 25.0704L16.3011 17.1388H23.595V25.021L23.8114 25.0207L27.9004 17.1387H38.5693ZM101.332 37.1552H104.438V19.3262H101.332V37.1552ZM84.2082 36.9731C84.8832 37.2537 85.5697 37.3941 86.2676 37.3941C87.4205 37.3941 88.4521 37.1135 89.3623 36.5521C90.2725 35.9909 90.978 35.2172 91.4786 34.2311C91.9792 33.2375 92.2295 32.111 92.2295 30.8519C92.2295 29.5927 91.9716 28.4664 91.4558 27.4727C90.94 26.4791 90.2232 25.7092 89.3053 25.163C88.3876 24.6093 87.3446 24.3363 86.1765 24.3438C85.4332 24.3438 84.7202 24.488 84.0375 24.7762C83.3548 25.0644 82.786 25.474 82.3308 26.005C82.2957 26.0454 82.2616 26.0862 82.2285 26.1275V19.3376H79.111V37.1552H82.2057L82.1995 35.4907C82.2795 35.5889 82.3651 35.6847 82.456 35.7785C82.949 36.2867 83.5331 36.6849 84.2082 36.9731ZM87.394 34.0946C86.8857 34.4056 86.3055 34.5611 85.6531 34.5611C85.0083 34.5611 84.4167 34.4017 83.8782 34.0832C83.3396 33.757 82.9111 33.3134 82.5925 32.752C82.2815 32.1907 82.126 31.5535 82.126 30.8405C82.1185 30.1275 82.2701 29.4904 82.5811 28.9291C82.8997 28.3602 83.3282 27.9202 83.8668 27.6093C84.4053 27.2907 85.0008 27.1352 85.6531 27.1428C86.3055 27.1352 86.8857 27.2869 87.394 27.5979C87.9097 27.9013 88.3041 28.3374 88.5772 28.9063C88.8578 29.4676 88.9982 30.1124 88.9982 30.8405C88.9982 31.5687 88.8578 32.2135 88.5772 32.7747C88.3041 33.3361 87.9097 33.776 87.394 34.0946ZM43.0691 20.4071H46.619L49.7945 32.0041L53.1726 20.4071H56.1308L59.7945 31.7713L62.8437 20.4071H66.0977L61.2963 37.1552H58.2357L54.5102 26.0532L51.0905 37.1552H47.9957L43.0691 20.4071ZM71.3403 37.4509C70.1038 37.4586 68.9888 37.1854 67.9952 36.6318C67.0091 36.0704 66.2317 35.2929 65.6627 34.2993C65.1014 33.3057 64.8208 32.1717 64.8208 30.8973C64.8208 29.6609 65.1091 28.5422 65.6856 27.5409C66.2619 26.5397 67.0432 25.7584 68.0293 25.1971C69.0154 24.6358 70.1152 24.3552 71.3288 24.3552C72.6942 24.3552 73.8888 24.6586 74.9128 25.2654C75.9444 25.8722 76.7143 26.7331 77.2225 27.8481C77.7383 28.9556 77.9242 30.2261 77.7801 31.6597H68.0342C68.0614 32.2308 68.2039 32.7504 68.4617 33.2184C68.7499 33.7342 69.1519 34.1362 69.6677 34.4244C70.1835 34.7127 70.7599 34.8568 71.3972 34.8568C71.8826 34.8492 72.3339 34.7658 72.7511 34.6066C73.1683 34.4397 73.5209 34.2159 73.8092 33.9352C74.105 33.6546 74.3137 33.3361 74.4351 32.9796H77.6891C77.4918 33.8518 77.0974 34.6293 76.5058 35.3119C75.914 35.9871 75.1708 36.5142 74.2757 36.8934C73.3807 37.2727 72.4022 37.4586 71.3403 37.4509ZM68.4731 28.5308C68.2913 28.8478 68.1653 29.1891 68.0952 29.5548H74.5555C74.5087 29.0928 74.3661 28.6718 74.1278 28.2919C73.8547 27.8443 73.4831 27.4992 73.0128 27.2565C72.5425 27.0062 72.0116 26.881 71.4199 26.881C70.7903 26.881 70.2177 27.0251 69.7018 27.3134C69.1861 27.6016 68.7764 28.0074 68.4731 28.5308ZM94.5168 24.6169C94.5168 23.6005 94.748 22.6978 95.2108 21.909C95.6734 21.1125 96.322 20.4943 97.1564 20.0544C97.9983 19.6069 98.9807 19.3755 100.103 19.3604V22.1251C99.5798 22.1327 99.1323 22.2427 98.7607 22.4551C98.3965 22.6599 98.1159 22.9595 97.9187 23.3539C97.7372 23.7171 97.6392 24.138 97.6248 24.6169H100.035V27.2451H97.6229V37.1552H94.5168V27.2451H92.5143V24.6169H94.5168ZM112.334 37.4281C111.067 37.4281 109.933 37.1513 108.932 36.5976C107.938 36.0363 107.157 35.2626 106.588 34.2765C106.027 33.2829 105.746 32.1565 105.746 30.8973C105.746 29.6306 106.027 28.5004 106.588 27.5067C107.157 26.5055 107.938 25.728 108.932 25.1743C109.933 24.6206 111.067 24.3437 112.334 24.3437C113.608 24.3437 114.746 24.6206 115.747 25.1743C116.756 25.728 117.541 26.5017 118.102 27.4954C118.664 28.489 118.948 29.623 118.956 30.8973C118.948 32.1565 118.664 33.2829 118.102 34.2765C117.549 35.2626 116.767 36.0363 115.758 36.5976C114.75 37.1513 113.608 37.4281 112.334 37.4281ZM112.334 34.5724C113.001 34.5724 113.593 34.4206 114.109 34.1173C114.625 33.8063 115.023 33.3739 115.303 32.8201C115.584 32.2589 115.724 31.6179 115.724 30.8973C115.724 30.1691 115.584 29.5244 115.303 28.9631C115.023 28.4018 114.625 27.9694 114.109 27.666C113.593 27.355 113.001 27.1995 112.334 27.1995C111.674 27.1995 111.086 27.355 110.57 27.666C110.062 27.9694 109.668 28.4018 109.387 28.9631C109.106 29.5244 108.97 30.1691 108.977 30.8973C108.977 31.6179 109.118 32.2589 109.398 32.8201C109.687 33.3739 110.081 33.8063 110.582 34.1173C111.09 34.4206 111.674 34.5724 112.334 34.5724ZM122.312 24.6169H118.853L122.597 37.1552H125.623L128.085 29.1469L130.743 37.1552H133.724L137.479 24.6169H134.35L132.22 32.4212L129.866 24.6169H126.841L124.498 32.5931L122.312 24.6169Z" fill="black"/>
<path d="M38.5693 17.1387L27.0598 39.6387H16.249L21.0658 30.3137H20.8496C16.8759 35.4722 10.9469 38.868 2.49902 39.6387V30.4428C2.49902 30.4428 7.90334 30.1235 11.0804 26.7834H2.49902V17.1388H12.1435V25.0713L12.36 25.0704L16.3011 17.1388H23.595V25.021L23.8114 25.0207L27.9004 17.1387H38.5693ZM101.332 37.1552H104.438V19.3262H101.332V37.1552ZM84.2082 36.9731C84.8832 37.2537 85.5697 37.3941 86.2676 37.3941C87.4205 37.3941 88.4521 37.1135 89.3623 36.5521C90.2725 35.9909 90.978 35.2172 91.4786 34.2311C91.9792 33.2375 92.2295 32.111 92.2295 30.8519C92.2295 29.5927 91.9716 28.4664 91.4558 27.4727C90.94 26.4791 90.2232 25.7092 89.3053 25.163C88.3876 24.6093 87.3446 24.3363 86.1765 24.3438C85.4332 24.3438 84.7202 24.488 84.0375 24.7762C83.3548 25.0644 82.786 25.474 82.3308 26.005C82.2957 26.0454 82.2616 26.0862 82.2285 26.1275V19.3376H79.111V37.1552H82.2057L82.1995 35.4907C82.2795 35.5889 82.3651 35.6847 82.456 35.7785C82.949 36.2867 83.5331 36.6849 84.2082 36.9731ZM87.394 34.0946C86.8857 34.4056 86.3055 34.5611 85.6531 34.5611C85.0083 34.5611 84.4167 34.4017 83.8782 34.0832C83.3396 33.757 82.9111 33.3134 82.5925 32.752C82.2815 32.1907 82.126 31.5535 82.126 30.8405C82.1185 30.1275 82.2701 29.4904 82.5811 28.9291C82.8997 28.3602 83.3282 27.9202 83.8668 27.6093C84.4053 27.2907 85.0008 27.1352 85.6531 27.1428C86.3055 27.1352 86.8857 27.2869 87.394 27.5979C87.9097 27.9013 88.3041 28.3374 88.5772 28.9063C88.8578 29.4676 88.9982 30.1124 88.9982 30.8405C88.9982 31.5687 88.8578 32.2135 88.5772 32.7747C88.3041 33.3361 87.9097 33.776 87.394 34.0946ZM43.0691 20.4071H46.619L49.7945 32.0041L53.1726 20.4071H56.1308L59.7945 31.7713L62.8437 20.4071H66.0977L61.2963 37.1552H58.2357L54.5102 26.0532L51.0905 37.1552H47.9957L43.0691 20.4071ZM71.3403 37.4509C70.1038 37.4586 68.9888 37.1854 67.9952 36.6318C67.0091 36.0704 66.2317 35.2929 65.6627 34.2993C65.1014 33.3057 64.8208 32.1717 64.8208 30.8973C64.8208 29.6609 65.1091 28.5422 65.6856 27.5409C66.2619 26.5397 67.0432 25.7584 68.0293 25.1971C69.0154 24.6358 70.1152 24.3552 71.3288 24.3552C72.6942 24.3552 73.8888 24.6586 74.9128 25.2654C75.9444 25.8722 76.7143 26.7331 77.2225 27.8481C77.7383 28.9556 77.9242 30.2261 77.7801 31.6597H68.0342C68.0614 32.2308 68.2039 32.7504 68.4617 33.2184C68.7499 33.7342 69.1519 34.1362 69.6677 34.4244C70.1835 34.7127 70.7599 34.8568 71.3972 34.8568C71.8826 34.8492 72.3339 34.7658 72.7511 34.6066C73.1683 34.4397 73.5209 34.2159 73.8092 33.9352C74.105 33.6546 74.3137 33.3361 74.4351 32.9796H77.6891C77.4918 33.8518 77.0974 34.6293 76.5058 35.3119C75.914 35.9871 75.1708 36.5142 74.2757 36.8934C73.3807 37.2727 72.4022 37.4586 71.3403 37.4509ZM68.4731 28.5308C68.2913 28.8478 68.1653 29.1891 68.0952 29.5548H74.5555C74.5087 29.0928 74.3661 28.6718 74.1278 28.2919C73.8547 27.8443 73.4831 27.4992 73.0128 27.2565C72.5425 27.0062 72.0116 26.881 71.4199 26.881C70.7903 26.881 70.2177 27.0251 69.7018 27.3134C69.1861 27.6016 68.7764 28.0074 68.4731 28.5308ZM94.5168 24.6169C94.5168 23.6005 94.748 22.6978 95.2108 21.909C95.6734 21.1125 96.322 20.4943 97.1564 20.0544C97.9983 19.6069 98.9807 19.3755 100.103 19.3604V22.1251C99.5798 22.1327 99.1323 22.2427 98.7607 22.4551C98.3965 22.6599 98.1159 22.9595 97.9187 23.3539C97.7372 23.7171 97.6392 24.138 97.6248 24.6169H100.035V27.2451H97.6229V37.1552H94.5168V27.2451H92.5143V24.6169H94.5168ZM112.334 37.4281C111.067 37.4281 109.933 37.1513 108.932 36.5976C107.938 36.0363 107.157 35.2626 106.588 34.2765C106.027 33.2829 105.746 32.1565 105.746 30.8973C105.746 29.6306 106.027 28.5004 106.588 27.5067C107.157 26.5055 107.938 25.728 108.932 25.1743C109.933 24.6206 111.067 24.3437 112.334 24.3437C113.608 24.3437 114.746 24.6206 115.747 25.1743C116.756 25.728 117.541 26.5017 118.102 27.4954C118.664 28.489 118.948 29.623 118.956 30.8973C118.948 32.1565 118.664 33.2829 118.102 34.2765C117.549 35.2626 116.767 36.0363 115.758 36.5976C114.75 37.1513 113.608 37.4281 112.334 37.4281ZM112.334 34.5724C113.001 34.5724 113.593 34.4206 114.109 34.1173C114.625 33.8063 115.023 33.3739 115.303 32.8201C115.584 32.2589 115.724 31.6179 115.724 30.8973C115.724 30.1691 115.584 29.5244 115.303 28.9631C115.023 28.4018 114.625 27.9694 114.109 27.666C113.593 27.355 113.001 27.1995 112.334 27.1995C111.674 27.1995 111.086 27.355 110.57 27.666C110.062 27.9694 109.668 28.4018 109.387 28.9631C109.106 29.5244 108.97 30.1691 108.977 30.8973C108.977 31.6179 109.118 32.2589 109.398 32.8201C109.687 33.3739 110.081 33.8063 110.582 34.1173C111.09 34.4206 111.674 34.5724 112.334 34.5724ZM122.312 24.6169H118.853L122.597 37.1552H125.623L128.085 29.1469L130.743 37.1552H133.724L137.479 24.6169H134.35L132.22 32.4212L129.866 24.6169H126.841L124.498 32.5931L122.312 24.6169Z" fill="black"/>
</svg>
